<svg version="1.1" id="Icons" xmlns="http://www.w3.org/2000/svg" xmlns:xlink="http://www.w3.org/1999/xlink" viewBox="0 0 32 32" xml:space="preserve" fill="#FFDB6E" stroke="#FFDB6E"><g id="SVGRepo_bgCarrier" stroke-width="0"></g><g id="SVGRepo_tracerCarrier" stroke-linecap="round" stroke-linejoin="round"></g><g id="SVGRepo_iconCarrier"> <style type="text/css"> .st0{fill:none;stroke:#FFDB6E;stroke-width:2;stroke-linecap:round;stroke-linejoin:round;stroke-miterlimit:10;} .st1{fill:none;stroke:#FFDB6E;stroke-width:2;stroke-linecap:round;stroke-linejoin:round;} .st2{fill:none;stroke:#FFDB6E;stroke-width:2;stroke-linecap:round;stroke-linejoin:round;stroke-dasharray:5.2066,0;} </style> <path class="st0" d="M3,6v15c0,1.1,0.9,2,2,2h22c1.1,0,2-0.9,2-2V6c0-1.1-0.9-2-2-2H5C3.9,4,3,4.9,3,6z"></path> <line class="st0" x1="9" y1="29" x2="23" y2="29"></line> <path class="st0" d="M13,23c0,2.1-0.7,4.6-1.8,6"></path> <path class="st0" d="M20.8,29c-1.1-1.4-1.8-3.9-1.8-6"></path> <path class="st0" d="M11,10c-2.2,0-4,1.8-4,4c0,2.2,1.8,4,4,4s4-1.8,4-4"></path> <path class="st0" d="M12,9v4h4C16,10.8,14.2,9,12,9z"></path> <line class="st0" x1="20" y1="12" x2="25" y2="12"></line> <line class="st0" x1="23" y1="15" x2="25" y2="15"></line> </g></svg>